<svg width="107" height="40" viewBox="0 0 107 40" fill="none" xmlns="http://www.w3.org/2000/svg">
<rect width="106.881" height="40" rx="12" fill="white"/>
<g clip-path="url(#clip0)">
<path d="M33.7788 7.663C33.7788 7.663 27.7965 9.30965 25.534 9.95086C23.2714 10.5921 21.8685 15.4206 21.8535 15.4628L15.217 17.3202C15.217 17.3202 12.8032 17.7988 12.8032 20.2887C12.8032 22.6518 15.217 21.7637 15.217 21.7637C15.217 21.7637 16.3724 21.4627 18.629 20.8155C20.8855 20.1683 21.8478 15.5082 21.8539 15.4661L33.7792 12.1547C33.7792 12.1547 36.1929 11.6397 36.1929 9.14437C36.2044 6.77498 33.7788 7.663 33.7788 7.663Z" fill="#FF671D"/>
<path d="M9.93137 32.3357L18.6257 29.8883C20.8731 29.2501 21.8414 24.581 21.8536 24.5359L28.4905 22.6785C28.4905 22.6785 30.9042 22.1998 30.9042 19.7103C30.9042 17.3501 28.4727 18.1871 28.4727 18.1871C28.4727 18.1871 27.3203 18.4881 25.0637 19.1353C22.8072 19.7824 21.8448 24.4937 21.8358 24.5359L9.91327 27.8473C9.91327 27.8473 7.49951 28.3651 7.49951 30.8577C7.50618 33.2268 9.93137 32.3357 9.93137 32.3357Z" fill="#FF671D"/>
<path d="M41.0435 15.752H46.1418V16.4714H41.8367V19.4969H45.8399V20.2164H41.8367V24.2472H41.0435V15.752Z" fill="#4D4D4D"/>
<path d="M49.1855 15.752H51.8765C52.0869 15.763 52.2964 15.7872 52.5038 15.8242C52.7375 15.8672 52.9668 15.9317 53.1886 16.0169C53.4197 16.104 53.6317 16.2348 53.8131 16.4022C54.0067 16.5814 54.1626 16.7973 54.2716 17.0374C54.4003 17.3323 54.4622 17.652 54.4526 17.9736C54.4648 18.3208 54.3923 18.6659 54.2414 18.979C54.1139 19.2334 53.9328 19.4573 53.7105 19.6353C53.5002 19.7982 53.262 19.9217 53.0075 19.9997C52.7687 20.0776 52.5234 20.134 52.2744 20.1683L54.7515 24.2471H53.8463L51.454 20.2163H49.976V24.2471H49.1855V15.752ZM49.979 19.4968H51.6623C52.0079 19.5087 52.3527 19.4555 52.6786 19.3402C52.9055 19.2573 53.1115 19.1258 53.282 18.9549C53.422 18.819 53.5257 18.6503 53.5838 18.4643C53.6336 18.3095 53.6601 18.1482 53.6622 17.9856C53.6601 17.8221 53.6337 17.6598 53.5838 17.504C53.5244 17.3185 53.4209 17.1501 53.282 17.0133C53.1107 16.8434 52.9049 16.7121 52.6786 16.628C52.3523 16.5141 52.0078 16.461 51.6623 16.4714H49.979V19.4968Z" fill="#4D4D4D"/>
<path d="M60.3781 15.752H61.196L64.7769 24.2471H63.8717L62.9486 21.9924H58.4233L57.461 24.2471H56.6313L60.3781 15.752ZM60.7522 16.6249L58.7672 21.2819H62.689L60.7522 16.6249Z" fill="#4D4D4D"/>
<path d="M74.4725 22.9164C74.1112 23.4287 73.6226 23.8385 73.0546 24.1055C72.5052 24.3463 71.911 24.4683 71.3109 24.4637C70.6995 24.4719 70.0926 24.3593 69.525 24.1326C69.003 23.9255 68.5303 23.6117 68.1372 23.2114C67.7431 22.8042 67.4353 22.3218 67.2321 21.7932C66.7976 20.6384 66.7976 19.3656 67.2321 18.2109C67.4367 17.6858 67.7445 17.2068 68.1372 16.802C68.5298 16.3989 69.0025 16.0821 69.5249 15.8718C70.0921 15.6431 70.6991 15.5285 71.3108 15.5347C71.8644 15.5283 72.4138 15.6306 72.9278 15.8358C73.4546 16.0561 73.9129 16.4126 74.2557 16.8685L73.6041 17.4073C73.3568 17.0238 73.0039 16.7196 72.5877 16.5313C72.1895 16.3511 71.7573 16.2577 71.32 16.2574C70.8016 16.2517 70.2877 16.3543 69.8114 16.5584C69.3814 16.7408 68.994 17.0104 68.674 17.3502C68.3553 17.6994 68.1101 18.1089 67.953 18.5545C67.6151 19.51 67.6151 20.5521 67.953 21.5077C68.1112 21.9473 68.3564 22.3506 68.674 22.6937C68.9924 23.0353 69.3802 23.3052 69.8114 23.4855C70.2877 23.6897 70.8016 23.7922 71.32 23.7866C71.5464 23.7849 71.772 23.7587 71.9927 23.7083C72.2279 23.6556 72.4558 23.5747 72.6715 23.4674C72.897 23.3557 73.1095 23.2194 73.305 23.061C73.5107 22.8883 73.6887 22.6852 73.833 22.4589L74.4725 22.9164Z" fill="#4D4D4D"/>
<path d="M79.2719 16.4714H76.3667V15.752H82.9734V16.4714H80.0652V24.2471H79.2718L79.2719 16.4714Z" fill="#4D4D4D"/>
<path d="M87.529 15.752H88.3468L91.9309 24.2471H91.0257L90.0996 21.9924H85.6074L84.6451 24.2471H83.8154L87.529 15.752ZM87.9061 16.6249L85.9211 21.2819H89.8427L87.9061 16.6249Z" fill="#4D4D4D"/>
<path d="M94.6152 15.752H95.4087V23.5276H99.3787V24.2471H94.6152V15.752Z" fill="#4D4D4D"/>
</g>
<defs>
<clipPath id="clip0">
<rect x="7.5" y="7.5" width="91.879" height="25" rx="12" fill="white"/>
</clipPath>
</defs>
</svg>
