<svg width="24" height="24" viewBox="0 0 24 24" fill="none" xmlns="http://www.w3.org/2000/svg">
<circle cx="12" cy="12" r="12" fill="#132C53"/>
<path d="M11.9998 9.12719C13.2098 9.12719 14.1906 8.20328 14.1906 7.06359C14.1906 5.9239 13.2098 5 11.9998 5C10.7899 5 9.80908 5.9239 9.80908 7.06359C9.80908 8.20328 10.7899 9.12719 11.9998 9.12719Z" fill="white"/>
<path d="M15 11.3152V10.0608H9V11.3152C9.4469 11.3152 9.80915 11.6564 9.80915 12.0773V16.9834C9.80915 17.4044 9.44687 17.7456 9 17.7456V19H15V17.7457C14.5531 17.7457 14.1909 17.4044 14.1909 16.9835V12.0773C14.1908 11.6564 14.5531 11.3152 15 11.3152Z" fill="white"/>
</svg>
