<svg width="17" height="21" viewBox="0 0 17 21" fill="none" xmlns="http://www.w3.org/2000/svg">
<path fill-rule="evenodd" clip-rule="evenodd" d="M1.55876 0.128388C0.85084 0.423965 0.33748 1.06702 0.101951 1.95332C0.0024215 2.3279 0 2.45246 0 7.15244C0 11.8654 0.00217438 11.9758 0.102692 12.3475C0.36718 13.3255 0.983875 14.0164 1.80151 14.2507C2.22576 14.3722 3.13853 14.377 3.36679 14.2589C3.66701 14.1035 3.85465 13.7661 3.85465 13.3816C3.85465 13.0683 3.74015 12.7956 3.52231 12.5904C3.35592 12.4336 3.30848 12.4223 2.68941 12.3925C1.96538 12.3575 1.86827 12.3122 1.64317 11.9035L1.53198 11.7016V7.19988C1.53198 2.35459 1.52748 2.44324 1.78712 2.16067C2.03847 1.88707 2.00219 1.88952 5.8264 1.88952H9.47374L9.63712 2.02689C9.96793 2.30501 10.0046 2.42498 10.0329 3.31953C10.0571 4.08439 10.0662 4.14301 10.1931 4.34858C10.5784 4.97271 11.3017 4.86977 11.5435 4.15644C11.6392 3.87442 11.6353 2.74669 11.5369 2.22252C11.3473 1.21233 10.7881 0.450403 9.99649 0.123626C9.69529 -0.0007471 9.61137 -0.00318938 5.7712 0.00108461C1.98001 0.00529754 1.84366 0.00944942 1.55876 0.128388ZM7.14099 6.76687C6.97791 6.8253 6.75552 6.92488 6.6468 6.9882C6.37717 7.14524 5.77521 7.90185 5.64662 8.2453C5.38539 8.94294 5.38663 8.91619 5.38663 13.8453C5.38663 18.8442 5.385 18.8121 5.67459 19.5044C5.93715 20.1322 6.57401 20.7541 7.14099 20.9362C7.26963 20.9775 8.69461 20.9998 11.2222 21C15.0126 21.0003 15.1132 20.9974 15.4164 20.8744C16.1436 20.5794 16.6587 19.9446 16.8962 19.0505C16.9981 18.6672 17 18.5715 17 13.8447C17 9.13173 16.9978 9.02127 16.8973 8.64962C16.7049 7.93831 16.2736 7.30649 15.7614 6.98582C15.2342 6.65574 15.1762 6.65159 11.1532 6.65629C7.77592 6.66026 7.41052 6.67034 7.14099 6.76687ZM15.0765 8.74463C15.1683 8.82095 15.2939 8.97615 15.3556 9.08947L15.468 9.29548V13.8018C15.468 18.5266 15.47 18.4818 15.2486 18.7923C15.0198 19.1131 15.0916 19.1076 11.1699 19.1076H7.52626L7.35952 18.9687C7.2678 18.8924 7.14217 18.7372 7.0804 18.6239L6.96802 18.4179V13.857C6.96802 9.00729 6.96466 9.08154 7.19668 8.84354C7.41714 8.6175 7.41106 8.61787 11.1984 8.61177L14.9098 8.60578L15.0765 8.74463Z" fill="white" fill-opacity="0.66"/>
</svg>
