<svg width="22" height="17" viewBox="0 0 22 17" fill="none" xmlns="http://www.w3.org/2000/svg">
<g opacity="0.6">
<line x1="4" y1="15.5858" x2="17.5858" y2="2" stroke="#FF671D" stroke-width="2" stroke-linecap="round"/>
<path d="M11 3C4.188 3 0 9 0 9C0 9 4.188 15 11 15C17.812 15 22 9 22 9C22 9 17.812 3 11 3ZM11 13C7.057 13 4.074 10.516 2.62 9C3.66 7.915 6.483 6.343 8.875 5.53C8.31212 6.23053 8.00363 7.10135 8 8C7.99637 8.89865 9.5 10 11 10C12.5 10 14 8.937 14 8C14 7.063 13.665 6.213 13.125 5.53C15.518 6.343 18.341 7.916 19.379 9C17.923 10.518 14.941 13 10.999 13H11Z" fill="#FF671D"/>
</g>
</svg>
