<svg width="24" height="24" viewBox="0 0 24 24" fill="none" xmlns="http://www.w3.org/2000/svg">
<circle cx="12" cy="12" r="12" fill="#132C53"/>
<path d="M17.6277 17.4375C17.6277 17.5734 17.5785 17.7048 17.4891 17.8072C17.3998 17.9096 17.2764 17.9763 17.1417 17.9948L17.0652 18L7.31219 18C7.16967 18 7.03248 17.9458 6.92834 17.8485C6.8242 17.7512 6.76088 17.618 6.75117 17.4758C6.74145 17.3337 6.78607 17.1931 6.87601 17.0825C6.96595 16.972 7.0945 16.8997 7.23568 16.8802L7.31219 16.875L17.0652 16.875C17.2144 16.875 17.3574 16.9343 17.4629 17.0398C17.5684 17.1452 17.6277 17.2883 17.6277 17.4375ZM16.2747 10.9853L16.3377 11.04C16.4331 11.1353 16.4912 11.2617 16.5012 11.3962C16.5113 11.5307 16.4727 11.6643 16.3924 11.7727L16.3377 11.8358L12.5899 15.5828C12.4947 15.678 12.3684 15.7359 12.2341 15.746C12.0998 15.756 11.9663 15.7175 11.8579 15.6375L11.7942 15.5835L8.04194 11.8358C7.94103 11.7355 7.88185 11.6008 7.8763 11.4586C7.87075 11.3165 7.91925 11.1776 8.01204 11.0698C8.10482 10.962 8.235 10.8933 8.37636 10.8776C8.51773 10.8619 8.65978 10.9004 8.77394 10.9853L8.83694 11.04L11.6247 13.8225L11.6247 3.5625C11.6247 3.42668 11.6738 3.29545 11.763 3.19302C11.8522 3.0906 11.9754 3.0239 12.1099 3.00525L12.1864 3C12.3225 3.00003 12.4539 3.04936 12.5564 3.13886C12.6588 3.22835 12.7254 3.35195 12.7437 3.48675L12.7489 3.5625L12.7497 13.833L15.5427 11.04C15.6379 10.9447 15.7642 10.8868 15.8985 10.8768C16.0329 10.8667 16.1663 10.9052 16.2747 10.9853L16.3377 11.04L16.2747 10.9853Z" fill="white"/>
</svg>
