<svg width="12" height="12" viewBox="0 0 12 12" fill="none" xmlns="http://www.w3.org/2000/svg">
<circle cx="6" cy="6" r="6" fill="#F8DBD2"/>
<path fill-rule="evenodd" clip-rule="evenodd" d="M8.76595 3.85355C8.96122 3.65829 8.96122 3.34171 8.76595 3.14645C8.57069 2.95118 8.25411 2.95118 8.05885 3.14645L5.95611 5.24918L3.85355 3.14662C3.65829 2.95136 3.34171 2.95136 3.14645 3.14662C2.95118 3.34188 2.95118 3.65847 3.14645 3.85373L5.24901 5.95629L3.14645 8.05885C2.95118 8.25411 2.95118 8.57069 3.14645 8.76595C3.34171 8.96122 3.65829 8.96122 3.85355 8.76595L5.95611 6.66339L8.05885 8.76613C8.25411 8.96139 8.57069 8.96139 8.76596 8.76613C8.96122 8.57087 8.96122 8.25429 8.76595 8.05902L6.66322 5.95629L8.76595 3.85355Z" fill="#DB4929"/>
</svg>
