<svg width="46" height="40" viewBox="0 0 46 40" fill="none" xmlns="http://www.w3.org/2000/svg">
<path d="M42.0467 0.260798C42.0467 0.260798 32.475 2.89543 28.8549 3.92137C25.2348 4.94731 22.9902 12.673 22.9661 12.7404L12.3477 15.7123C12.3477 15.7123 8.48572 16.4781 8.48572 20.4619C8.48572 24.2429 12.3477 22.822 12.3477 22.822C12.3477 22.822 14.1964 22.3402 17.8069 21.3048C21.4174 20.2694 22.9571 12.8132 22.9667 12.7458L42.0472 7.44758C42.0472 7.44758 45.9092 6.62358 45.9092 2.63099C45.9275 -1.16003 42.0467 0.260798 42.0467 0.260798Z" fill="#FF671D"/>
<path d="M3.89049 39.7373L17.8013 35.8214C21.3973 34.8003 22.9465 27.3298 22.966 27.2576L33.585 24.2857C33.585 24.2857 37.447 23.5199 37.447 19.5366C37.447 15.7604 33.5566 17.0994 33.5566 17.0994C33.5566 17.0994 31.7127 17.5812 28.1022 18.6166C24.4918 19.6521 22.952 27.1901 22.9376 27.2576L3.86152 32.5559C3.86152 32.5559 -0.000488281 33.3843 -0.000488281 37.3724C0.0101831 41.1631 3.89049 39.7373 3.89049 39.7373Z" fill="#FF671D"/>
</svg>
