<svg width="20" height="16" viewBox="0 0 20 16" fill="none" xmlns="http://www.w3.org/2000/svg">
<path d="M17.6187 0.104319C17.6187 0.104319 13.79 1.15817 12.342 1.56855C10.8939 1.97893 9.9961 5.06919 9.98644 5.09617L5.73909 6.28491C5.73909 6.28491 4.19429 6.59123 4.19429 8.18477C4.19429 9.69717 5.73909 9.12879 5.73909 9.12879C5.73909 9.12879 6.47857 8.9361 7.92276 8.52192C9.36694 8.10774 9.98283 5.12528 9.9867 5.0983L17.6189 2.97903C17.6189 2.97903 19.1637 2.64943 19.1637 1.0524C19.171 -0.464011 17.6187 0.104319 17.6187 0.104319Z" fill="#FF671D"/>
<path d="M2.35619 15.8949L7.92054 14.3286C9.35893 13.9201 9.97858 10.9319 9.98641 10.903L14.234 9.71429C14.234 9.71429 15.7788 9.40796 15.7788 7.81463C15.7788 6.30415 14.2226 6.83978 14.2226 6.83978C14.2226 6.83978 13.4851 7.03247 12.0409 7.44665C10.5967 7.86082 9.98082 10.876 9.97502 10.903L2.34461 13.0223C2.34461 13.0223 0.799805 13.3537 0.799805 14.949C0.804073 16.4652 2.35619 15.8949 2.35619 15.8949Z" fill="#FF671D"/>
</svg>
