<svg width="148" height="40" viewBox="0 0 148 40" fill="none" xmlns="http://www.w3.org/2000/svg">
<g clip-path="url(#clip0)">
<path d="M42.0467 0.260798C42.0467 0.260798 32.475 2.89543 28.8549 3.92137C25.2348 4.94731 22.9902 12.673 22.9661 12.7404L12.3477 15.7123C12.3477 15.7123 8.48572 16.4781 8.48572 20.4619C8.48572 24.2429 12.3477 22.822 12.3477 22.822C12.3477 22.822 14.1964 22.3402 17.8069 21.3048C21.4174 20.2694 22.9571 12.8132 22.9667 12.7458L42.0472 7.44758C42.0472 7.44758 45.9092 6.62358 45.9092 2.63099C45.9275 -1.16003 42.0467 0.260798 42.0467 0.260798Z" fill="#FF671D"/>
<path d="M3.89049 39.7371L17.8013 35.8212C21.3973 34.8001 22.9465 27.3296 22.966 27.2573L33.585 24.2855C33.585 24.2855 37.447 23.5197 37.447 19.5363C37.447 15.7601 33.5566 17.0992 33.5566 17.0992C33.5566 17.0992 31.7127 17.5809 28.1022 18.6164C24.4918 19.6518 22.952 27.1899 22.9376 27.2573L3.86152 32.5556C3.86152 32.5556 -0.000488281 33.3841 -0.000488281 37.3722C0.0101831 41.1628 3.89049 39.7371 3.89049 39.7371Z" fill="#FF671D"/>
<path d="M53.6697 13.2031H61.827V14.3543H54.9388V19.195H61.344V20.3462H54.9388V26.7955H53.6697V13.2031Z" fill="#4D4D4D"/>
<path d="M66.6973 13.2031H71.0028C71.3394 13.2208 71.6746 13.2595 72.0064 13.3187C72.3804 13.3874 72.7472 13.4907 73.1021 13.627C73.4719 13.7663 73.8112 13.9757 74.1013 14.2435C74.4111 14.5302 74.6606 14.8757 74.8349 15.2598C75.0409 15.7317 75.1398 16.2432 75.1246 16.7577C75.1441 17.3133 75.0281 17.8654 74.7867 18.3664C74.5827 18.7735 74.2929 19.1317 73.9371 19.4164C73.6007 19.6771 73.2196 19.8747 72.8125 19.9996C72.4303 20.1241 72.0377 20.2144 71.6395 20.2693L75.6028 26.7954H74.1545L70.3268 20.346H67.9619V26.7954H66.6973V13.2031ZM67.9668 19.1949H70.66C71.213 19.2138 71.7646 19.1289 72.2861 18.9444C72.6493 18.8118 72.9788 18.6013 73.2516 18.3279C73.4755 18.1104 73.6414 17.8405 73.7344 17.5428C73.8142 17.2952 73.8565 17.0371 73.8599 16.777C73.8566 16.5153 73.8143 16.2556 73.7344 16.0064C73.6394 15.7096 73.4738 15.4402 73.2516 15.2213C72.9775 14.9495 72.6483 14.7393 72.2861 14.6048C71.7641 14.4226 71.2129 14.3377 70.66 14.3543H67.9668V19.1949Z" fill="#4D4D4D"/>
<path d="M84.605 13.2031H85.9135L91.643 26.7954H90.1947L88.7178 23.1878H81.4773L79.9375 26.7954H78.6101L84.605 13.2031ZM85.2035 14.5999L82.0275 22.0511H88.3023L85.2035 14.5999Z" fill="#4D4D4D"/>
<path d="M107.156 24.6661C106.578 25.4859 105.796 26.1415 104.887 26.5686C104.008 26.9539 103.058 27.1492 102.098 27.1418C101.119 27.1549 100.148 26.9748 99.24 26.612C98.4049 26.2807 97.6486 25.7787 97.0196 25.1382C96.389 24.4865 95.8965 23.7148 95.5714 22.869C94.8763 21.0214 94.8763 18.9849 95.5714 17.1373C95.8988 16.2971 96.3912 15.5307 97.0196 14.8831C97.6478 14.2382 98.404 13.7313 99.2399 13.3948C100.147 13.0288 101.119 12.8455 102.097 12.8554C102.983 12.8453 103.862 13.0089 104.685 13.3371C105.527 13.6897 106.261 14.2601 106.809 14.9896L105.767 15.8516C105.371 15.238 104.806 14.7513 104.14 14.4501C103.503 14.1616 102.812 14.0122 102.112 14.0117C101.283 14.0027 100.46 14.1667 99.6982 14.4934C99.0102 14.7852 98.3905 15.2166 97.8785 15.7602C97.3685 16.3189 96.9762 16.9742 96.7249 17.6871C96.1842 19.2159 96.1842 20.8833 96.7249 22.4121C96.978 23.1155 97.3703 23.7609 97.8785 24.3099C98.388 24.8564 99.0083 25.2883 99.6982 25.5767C100.46 25.9033 101.283 26.0674 102.112 26.0584C102.474 26.0558 102.835 26.0138 103.188 25.9331C103.565 25.8488 103.929 25.7194 104.274 25.5478C104.635 25.369 104.975 25.1509 105.288 24.8976C105.617 24.6212 105.902 24.2963 106.133 23.9341L107.156 24.6661Z" fill="#4D4D4D"/>
<path d="M114.836 14.3543H110.187V13.2031H120.758V14.3543H116.105V26.7954H114.835L114.836 14.3543Z" fill="#4D4D4D"/>
<path d="M128.046 13.2031H129.355L135.089 26.7954H133.641L132.159 23.1878H124.972L123.432 26.7954H122.105L128.046 13.2031ZM128.65 14.5999L125.474 22.0511H131.748L128.65 14.5999Z" fill="#4D4D4D"/>
<path d="M139.385 13.2031H140.654V25.6442H147.006V26.7954H139.385V13.2031Z" fill="#4D4D4D"/>
</g>
<defs>
<clipPath id="clip0">
<rect width="147.006" height="40" fill="white"/>
</clipPath>
</defs>
</svg>
