<svg width="170" height="81" viewBox="0 0 170 81" fill="none" xmlns="http://www.w3.org/2000/svg">
<g filter="url(#filter0_d)">
<circle cx="113.5" cy="20.5" r="16.5" fill="url(#paint0_radial)"/>
</g>
<circle opacity="0.4" cx="168" cy="41" r="2" fill="url(#paint1_linear)"/>
<circle opacity="0.4" cx="149" cy="41" r="2" fill="url(#paint2_linear)"/>
<circle opacity="0.4" cx="130" cy="41" r="2" fill="url(#paint3_linear)"/>
<circle opacity="0.4" cx="40" cy="41" r="2" fill="url(#paint4_linear)"/>
<circle opacity="0.4" cx="21" cy="41" r="2" fill="url(#paint5_linear)"/>
<circle opacity="0.4" cx="2" cy="41" r="2" fill="url(#paint6_linear)"/>
<circle cx="85" cy="41" r="40" fill="url(#paint7_linear)"/>
<path d="M100.638 23.2086C100.638 23.2086 92.9805 25.3163 90.0844 26.1371C87.1883 26.9578 85.3926 33.1384 85.3733 33.1923L76.8787 35.5698C76.8787 35.5698 73.7891 36.1824 73.7891 39.3695C73.7891 42.3943 76.8787 41.2575 76.8787 41.2575C76.8787 41.2575 78.3576 40.8722 81.246 40.0438C84.1343 39.2154 85.3661 33.2505 85.3738 33.1966L100.638 28.958C100.638 28.958 103.728 28.2989 103.728 25.1048C103.742 22.072 100.638 23.2086 100.638 23.2086Z" fill="#FF671D"/>
<path d="M70.1128 54.7898L81.2414 51.6571C84.1182 50.8402 85.3575 44.8638 85.3732 44.806L93.8683 42.4286C93.8683 42.4286 96.9579 41.8159 96.9579 38.6293C96.9579 35.6083 93.8456 36.6796 93.8456 36.6796C93.8456 36.6796 92.3705 37.0649 89.4821 37.8933C86.5938 38.7216 85.362 44.7521 85.3504 44.806L70.0896 49.0447C70.0896 49.0447 67 49.7074 67 52.8979C67.0085 55.9304 70.1128 54.7898 70.1128 54.7898Z" fill="#FF671D"/>
<defs>
<filter id="filter0_d" x="89" y="0" width="49" height="49" filterUnits="userSpaceOnUse" color-interpolation-filters="sRGB">
<feFlood flood-opacity="0" result="BackgroundImageFix"/>
<feColorMatrix in="SourceAlpha" type="matrix" values="0 0 0 0 0 0 0 0 0 0 0 0 0 0 0 0 0 0 127 0" result="hardAlpha"/>
<feOffset dy="4"/>
<feGaussianBlur stdDeviation="4"/>
<feColorMatrix type="matrix" values="0 0 0 0 1 0 0 0 0 0.770206 0 0 0 0 0.658333 0 0 0 1 0"/>
<feBlend mode="normal" in2="BackgroundImageFix" result="effect1_dropShadow"/>
<feBlend mode="normal" in="SourceGraphic" in2="effect1_dropShadow" result="shape"/>
</filter>
<radialGradient id="paint0_radial" cx="0" cy="0" r="1" gradientUnits="userSpaceOnUse" gradientTransform="translate(104.734 9.15625) rotate(49.9392) scale(29.6428 23.8995)">
<stop offset="0.100448" stop-color="#FFEADF"/>
<stop offset="0.44346" stop-color="#FFC6AA"/>
<stop offset="0.875" stop-color="#FF671D"/>
<stop offset="1" stop-color="#E14A00"/>
</radialGradient>
<linearGradient id="paint1_linear" x1="168" y1="39" x2="168" y2="43" gradientUnits="userSpaceOnUse">
<stop stop-color="white"/>
<stop offset="1" stop-color="white" stop-opacity="0"/>
</linearGradient>
<linearGradient id="paint2_linear" x1="149" y1="39" x2="149" y2="43" gradientUnits="userSpaceOnUse">
<stop stop-color="white"/>
<stop offset="1" stop-color="white" stop-opacity="0"/>
</linearGradient>
<linearGradient id="paint3_linear" x1="130" y1="39" x2="130" y2="43" gradientUnits="userSpaceOnUse">
<stop stop-color="white"/>
<stop offset="1" stop-color="white" stop-opacity="0"/>
</linearGradient>
<linearGradient id="paint4_linear" x1="40" y1="39" x2="40" y2="43" gradientUnits="userSpaceOnUse">
<stop stop-color="white"/>
<stop offset="1" stop-color="white" stop-opacity="0"/>
</linearGradient>
<linearGradient id="paint5_linear" x1="21" y1="39" x2="21" y2="43" gradientUnits="userSpaceOnUse">
<stop stop-color="white"/>
<stop offset="1" stop-color="white" stop-opacity="0"/>
</linearGradient>
<linearGradient id="paint6_linear" x1="2" y1="39" x2="2" y2="43" gradientUnits="userSpaceOnUse">
<stop stop-color="white"/>
<stop offset="1" stop-color="white" stop-opacity="0"/>
</linearGradient>
<linearGradient id="paint7_linear" x1="85" y1="16" x2="85" y2="81" gradientUnits="userSpaceOnUse">
<stop stop-color="white"/>
<stop offset="1" stop-color="white" stop-opacity="0.4"/>
</linearGradient>
</defs>
</svg>
