<svg width="64" height="64" viewBox="0 0 64 64" fill="none" xmlns="http://www.w3.org/2000/svg">
  <circle opacity="0.4" cx="32" cy="32" r="32" fill="url(#paint0_linear)"/>
  <path d="M20.075 44.3749C19.7 44.2999 19.4 44.2249 19.025 44.0749C18.65 43.9249 18.35 43.8499 18.05 43.6999C17.375 43.3999 16.775 43.0249 16.175 42.5749C14.975 41.7499 14 40.6249 13.25 39.2749C12.5 37.9999 12.05 36.4999 11.975 35.0749C11.9 34.3249 11.975 33.6499 12.05 32.8999C12.125 32.5249 12.2 32.2249 12.275 31.8499C12.35 31.4749 12.5 31.1749 12.575 30.7999L12.65 31.8499C12.65 32.2249 12.725 32.5249 12.8 32.8999C12.875 33.5749 13.025 34.2499 13.175 34.8499C13.475 36.1249 13.925 37.3249 14.6 38.4499C15.275 39.5749 16.025 40.6249 17 41.5999C17.45 42.0499 17.975 42.4999 18.5 42.9499C18.725 43.1749 19.025 43.3999 19.325 43.6249L20.075 44.3749Z" fill="#FF671D"/>
  <path d="M19.85 47.0749C19.625 47.2249 19.325 47.2999 19.025 47.3749C18.725 47.4499 18.5 47.5249 18.2 47.5249C17.675 47.5999 17.075 47.6749 16.475 47.5999C15.35 47.5249 14.15 47.2249 13.175 46.6999C12.125 46.1749 11.225 45.3499 10.625 44.3749C10.325 43.9249 10.025 43.3999 9.8 42.8749C9.725 42.6499 9.65 42.3499 9.575 42.0499C9.575 41.8249 9.5 41.5999 9.5 41.2999C9.725 41.5249 9.875 41.6749 10.025 41.8999C10.25 42.1249 10.4 42.3499 10.55 42.4999C10.925 42.8749 11.225 43.2499 11.6 43.5499C12.35 44.2249 13.1 44.8249 14 45.2749C14.825 45.7249 15.8 46.0999 16.7 46.3999C17.15 46.5499 17.675 46.6249 18.2 46.7749C18.425 46.8499 18.725 46.8499 18.95 46.9249C19.325 46.9999 19.55 46.9999 19.85 47.0749" fill="#FF671D"/>
  <path d="M36.8 10.625C37.175 10.7 37.475 10.85 37.85 11C38.225 11.15 38.525 11.3 38.825 11.45C39.5 11.825 40.1 12.2 40.7 12.65C41.9 13.55 42.875 14.75 43.55 16.1C44.225 17.45 44.6 18.95 44.6 20.375C44.6 21.125 44.525 21.8 44.375 22.55C44.3 22.925 44.225 23.225 44.075 23.6C43.925 23.975 43.85 24.275 43.7 24.575L43.625 23.525C43.625 23.15 43.625 22.85 43.55 22.475L43.325 20.45C43.1 19.175 42.65 17.9 42.05 16.7C41.45 15.5 40.7 14.45 39.8 13.475C39.35 12.95 38.825 12.5 38.375 11.975C38.15 11.75 37.85 11.525 37.55 11.3L36.8 10.625" fill="#FF671D"/>
  <path d="M43.325 10.325C43.625 10.4 43.85 10.475 44.075 10.625C44.3 10.7 44.6 10.85 44.825 11C45.275 11.3 45.725 11.6 46.175 11.975C47 12.725 47.675 13.625 48.05 14.675C48.5 15.725 48.65 16.85 48.5 17.975C48.425 18.5 48.275 19.025 48.125 19.55C48.05 19.775 47.9 20.075 47.825 20.3C47.675 20.525 47.6 20.75 47.375 20.975V19.475C47.375 18.95 47.3 18.5 47.3 18.05C47.15 17.075 47 16.175 46.625 15.35C46.25 14.45 45.8 13.7 45.275 12.875C44.975 12.5 44.675 12.05 44.375 11.675C44.225 11.45 44.075 11.3 43.85 11.075C43.7 10.7 43.475 10.475 43.325 10.325" fill="#FF671D"/>
  <path fill-rule="evenodd" clip-rule="evenodd" d="M25.8002 36.2808L17.825 19.625C17.075 18.05 17.75 16.1 19.325 15.35C20.7598 14.6668 22.5059 15.2284 23.3723 16.5246L22.7 15.125C21.95 13.55 22.625 11.6 24.2 10.85C25.775 10.025 27.725 10.775 28.475 12.35L29.2811 14.0281C28.9968 12.6571 29.6757 11.2622 30.95 10.625C32.525 9.87503 34.325 10.55 35.075 12.05L43.8423 30.3153C45.2635 29.3999 45.6005 28.2602 46.3685 25.6628C46.4488 25.3916 46.5337 25.1044 46.625 24.8C48.275 19.4 51.575 17.675 53.6 19.25C54.7197 20.138 53.8915 22.5764 52.773 25.8693C51.7189 28.973 50.4069 32.8357 50.225 36.875C49.55 51.2 34.475 57.125 28.025 51.575C24.1625 48.3119 21.7191 41.6782 21.22 40.2323L14.15 25.475C13.475 23.975 14 22.175 15.5 21.5C17 20.75 18.725 21.425 19.4 22.925L25.78 36.2927C25.7867 36.2887 25.7935 36.2848 25.8002 36.2808Z" fill="url(#paint1_linear)"/>
  <path d="M31.025 10.55C30.875 10.625 30.725 10.7 30.575 10.85C32 10.475 33.5 11.15 34.175 12.5L44.975 35L45.95 34.55L35.15 12.05C34.4 10.475 32.6 9.80004 31.025 10.55" fill="url(#paint2_linear)"/>
  <path d="M19.325 15.4251C19.175 15.5001 19.025 15.5751 18.875 15.7251C20.3 15.3501 21.95 16.0251 22.625 17.4501L29.45 31.7751L31.1 32.7501L23.6 17.0001C22.85 15.3501 20.975 14.6751 19.325 15.4251" fill="url(#paint3_linear)"/>
  <path d="M24.2 10.775C24.05 10.85 23.9 11 23.75 11.075C25.175 10.7 26.825 11.375 27.5 12.8L35.225 29L36.875 29.975L28.475 12.35C27.725 10.7 25.775 10.025 24.2 10.775" fill="url(#paint4_linear)"/>
  <path d="M15.5 21.5C15.35 21.575 15.2 21.65 15.05 21.8C16.4 21.425 17.825 22.1 18.425 23.45L24.05 35.225L25.7 36.2L19.4 23C18.725 21.425 17 20.75 15.5 21.5Z" fill="url(#paint5_linear)"/>
  <path d="M53.6 19.25C53.225 18.95 52.775 18.8 52.325 18.725C52.4 18.8 52.55 18.8 52.625 18.875C54.875 20.6 52.55 24.575 51.275 28.175C50.225 31.025 49.325 33.95 49.475 36.8C50.075 49.25 37.55 55.175 30.05 52.925C37.4 56 51.05 50.15 50.45 37.175C50.3 34.325 51.125 31.55 52.25 28.55C53.45 24.95 55.775 20.975 53.6 19.25" fill="url(#paint6_linear)"/>
  <path d="M43.625 30.5C38.975 31.025 32.15 37.7 36.95 44.975C33.425 37.625 39.2 32.675 42.875 30.95C43.25 30.65 43.625 30.5 43.625 30.5" fill="url(#paint7_linear)"/>
  <defs>
  <linearGradient id="paint0_linear" x1="32" y1="0" x2="32" y2="64" gradientUnits="userSpaceOnUse">
  <stop stop-color="white"/>
  <stop offset="1" stop-color="white" stop-opacity="0"/>
  </linearGradient>
  <linearGradient id="paint1_linear" x1="23" y1="27.125" x2="47.8247" y2="42.9867" gradientUnits="userSpaceOnUse">
  <stop stop-color="white"/>
  <stop offset="0.571852" stop-color="white" stop-opacity="0.6"/>
  <stop offset="1" stop-color="white" stop-opacity="0.4"/>
  </linearGradient>
  <linearGradient id="paint2_linear" x1="38.2625" y1="10.2437" x2="38.2625" y2="35" gradientUnits="userSpaceOnUse">
  <stop stop-color="#DFE4EC"/>
  <stop offset="1" stop-color="#132C53"/>
  </linearGradient>
  <linearGradient id="paint3_linear" x1="24.9875" y1="15.1202" x2="24.9875" y2="32.7501" gradientUnits="userSpaceOnUse">
  <stop stop-color="#DFE4EC"/>
  <stop offset="1" stop-color="#132C53"/>
  </linearGradient>
  <linearGradient id="paint4_linear" x1="30.3125" y1="10.4702" x2="30.3125" y2="29.975" gradientUnits="userSpaceOnUse">
  <stop stop-color="#DFE4EC"/>
  <stop offset="1" stop-color="#132C53"/>
  </linearGradient>
  <linearGradient id="paint5_linear" x1="20.375" y1="21.1936" x2="20.375" y2="36.2" gradientUnits="userSpaceOnUse">
  <stop stop-color="#DFE4EC"/>
  <stop offset="1" stop-color="#132C53"/>
  </linearGradient>
  <linearGradient id="paint6_linear" x1="42.2722" y1="18.725" x2="42.2722" y2="53.729" gradientUnits="userSpaceOnUse">
  <stop stop-color="#DFE4EC"/>
  <stop offset="1" stop-color="#132C53"/>
  </linearGradient>
  <linearGradient id="paint7_linear" x1="36.5" y1="44.75" x2="44" y2="30.5" gradientUnits="userSpaceOnUse">
  <stop stop-color="#585F6B" stop-opacity="0"/>
  <stop offset="1" stop-color="#132C53"/>
  </linearGradient>
  </defs>
  </svg>
